<svg width="114" height="312" viewBox="0 0 114 312" fill="none" xmlns="http://www.w3.org/2000/svg">
<path d="M141.875 1.7876C145.875 -0.587402 150.75 -0.587402 154.625 1.7876L291.125 84.7876C294.375 86.7876 296.375 90.4126 296.375 94.1626L148.25 193.75L0 95.4001V94.1501C0 90.4001 2 86.7751 5.25 84.9001L141.875 1.7876Z" fill="#D3D3D3"/>
<path d="M148.2 178.075L290.2 91.825C290.823 91.4537 291.533 91.2541 292.257 91.2466C292.982 91.239 293.696 91.4238 294.326 91.7821C294.957 92.1404 295.481 92.6594 295.845 93.2862C296.209 93.9129 296.401 94.6251 296.4 95.35V249.6C296.405 253.315 295.454 256.969 293.636 260.209C291.819 263.45 289.198 266.167 286.025 268.1L153.025 348.85C152.684 349.03 152.317 349.157 151.938 349.225C151.6 349.319 151.251 349.365 150.9 349.362C148.033 350.158 144.968 349.784 142.375 348.325H142.45L112.5 212.5L148.2 178.075Z" fill="#AEAEAE"/>
<path d="M148.25 345.275V178.15L6.37505 91.9001C5.74862 91.4974 5.0251 91.2712 4.28082 91.2454C3.53654 91.2196 2.7991 91.3952 2.14629 91.7536C1.49348 92.112 0.949511 92.6399 0.571763 93.2817C0.194015 93.9236 -0.00350397 94.6554 4.70492e-05 95.4001V249.65C4.70492e-05 257.275 4.00005 264.275 10.375 268.15L142.5 348.4C143.064 348.756 143.713 348.955 144.379 348.976C145.045 348.998 145.705 348.841 146.291 348.523C146.877 348.205 147.367 347.736 147.711 347.165C148.056 346.594 148.242 345.942 148.25 345.275Z" fill="#757575"/>
<path d="M131.25 309.775V285.275C131.25 282.4 129.75 279.775 127.375 278.275L92.375 257.15C90 255.775 87 257.4 87 260.15V284.65C87 287.525 88.5 290.15 90.875 291.65L125.875 312.775C128.25 314.15 131.25 312.525 131.25 309.775Z" fill="#D3D3D3"/>
<path d="M97 181.913V124.913L56 122.163V161.663C56 162.913 56.625 164.163 57.75 164.913L91.25 185.288C93.75 186.663 97 184.913 97 181.913Z" fill="#666666"/>
<path d="M204.25 32.0376L56 122.163L97 147.163L245.25 57.1626L204.25 32.0376Z" fill="#666666"/>
</svg>
