<svg width="32" height="32" viewBox="0 0 32 32" fill="none" xmlns="http://www.w3.org/2000/svg">
<path d="M6.15467 26.6666C5.54044 26.6666 5.028 26.4612 4.61733 26.0506C4.20667 25.6399 4.00089 25.127 4 24.5119V11.4879C4 10.8737 4.20578 10.3613 4.61733 9.95059C5.02889 9.53992 5.54089 9.33414 6.15333 9.33325H12V7.48659C12 6.87325 12.2058 6.36081 12.6173 5.94925C13.0289 5.5377 13.5413 5.33237 14.1547 5.33325H17.8467C18.46 5.33325 18.9724 5.53859 19.384 5.94925C19.7956 6.35992 20.0009 6.87237 20 7.48659V9.33325H25.8467C26.46 9.33325 26.972 9.53903 27.3827 9.95059C27.7933 10.3621 27.9991 10.8746 28 11.4879V24.5132C28 25.1266 27.7942 25.639 27.3827 26.0506C26.9711 26.4621 26.4591 26.6675 25.8467 26.6666H6.15467ZM13.3333 9.33325H18.6667V7.48659C18.6667 7.28214 18.5813 7.09414 18.4107 6.92259C18.24 6.75103 18.052 6.6657 17.8467 6.66659H14.1533C13.9489 6.66659 13.7609 6.75192 13.5893 6.92259C13.4178 7.09325 13.3324 7.28125 13.3333 7.48659V9.33325ZM26.6667 19.3333H18.6667V20.2559C18.6667 20.5653 18.5644 20.8221 18.36 21.0266C18.1556 21.231 17.8987 21.3332 17.5893 21.3332H14.4107C14.1013 21.3332 13.8444 21.231 13.64 21.0266C13.4356 20.8221 13.3333 20.5653 13.3333 20.2559V19.3333H5.33333V24.5132C5.33333 24.7177 5.41867 24.9057 5.58933 25.0772C5.76 25.2488 5.948 25.3341 6.15333 25.3332H25.8467C26.0511 25.3332 26.2391 25.2479 26.4107 25.0772C26.5822 24.9066 26.6676 24.7181 26.6667 24.5119V19.3333ZM14.6667 19.9999H17.3333V17.3333H14.6667V19.9999ZM5.33333 17.9999H13.3333V17.0773C13.3333 16.7679 13.4356 16.511 13.64 16.3066C13.8444 16.1021 14.1013 15.9999 14.4107 15.9999H17.5893C17.8987 15.9999 18.1556 16.1021 18.36 16.3066C18.5644 16.511 18.6667 16.7679 18.6667 17.0773V17.9999H26.6667V11.4879C26.6667 11.2826 26.5813 11.0941 26.4107 10.9226C26.24 10.751 26.052 10.6657 25.8467 10.6666H6.15333C5.94889 10.6666 5.76089 10.7519 5.58933 10.9226C5.41778 11.0933 5.33244 11.2817 5.33333 11.4879V17.9999Z" fill="#121212"/>
</svg>
