<svg width="155" height="139" viewBox="0 0 155 139" fill="none" xmlns="http://www.w3.org/2000/svg">
<path d="M88.9219 1.74219C91.4219 0.257813 94.4688 0.257813 96.8906 1.74219L182.203 53.6172C184.234 54.8672 185.484 57.1328 185.484 59.4766L92.9063 121.719L0.25 60.25V59.4687C0.25 57.125 1.5 54.8594 3.53125 53.6875L88.9219 1.74219Z" fill="#D3D3D3"/>
<path d="M92.875 111.922L181.625 58.0156C182.014 57.7835 182.458 57.6588 182.911 57.6541C183.364 57.6494 183.81 57.7649 184.204 57.9888C184.598 58.2127 184.925 58.5371 185.153 58.9288C185.381 59.3205 185.5 59.7656 185.5 60.2187V156.625C185.503 158.947 184.909 161.231 183.773 163.256C182.637 165.281 180.999 166.98 179.016 168.187L95.8906 218.656C95.6775 218.769 95.4482 218.848 95.2109 218.891C94.9999 218.949 94.7816 218.978 94.5625 218.977C92.7706 219.473 90.8548 219.24 89.2344 218.328H89.2812L70.5625 133.437L92.875 111.922Z" fill="#AEAEAE"/>
<path d="M92.9063 216.422V111.969L4.23441 58.0625C3.84289 57.8108 3.39069 57.6694 2.92551 57.6533C2.46034 57.6372 1.99944 57.7469 1.59143 57.9709C1.18343 58.1949 0.843444 58.5249 0.607352 58.926C0.371259 59.3271 0.24781 59.7846 0.250029 60.25V156.656C0.250029 161.422 2.75003 165.797 6.7344 168.219L89.3125 218.375C89.665 218.597 90.0703 218.722 90.4868 218.735C90.9033 218.749 91.3158 218.651 91.6819 218.452C92.048 218.253 92.3544 217.96 92.5697 217.603C92.7849 217.246 92.9011 216.839 92.9063 216.422Z" fill="#757575"/>
<path d="M60.875 114.32V78.6953L35.25 76.9766V101.664C35.25 102.445 35.6406 103.227 36.3438 103.695L57.2813 116.43C58.8438 117.289 60.875 116.195 60.875 114.32Z" fill="#666666"/>
<path d="M127.906 20.6484L35.25 76.9766L60.875 92.6016L153.531 36.3516L127.906 20.6484Z" fill="#666666"/>
</svg>
