<svg width="32" height="32" viewBox="0 0 32 32" fill="none" xmlns="http://www.w3.org/2000/svg">
<path d="M27.924 22.4468C27.1932 18.0849 25.1047 14.0647 21.956 10.9588C21.2666 10.2882 20.9226 9.9535 20.1613 9.64416C19.4 9.3335 18.7453 9.3335 17.4373 9.3335H14.5626C13.2546 9.3335 12.6 9.3335 11.8386 9.64416C11.0786 9.9535 10.732 10.2882 10.044 10.9588C6.89525 14.0647 4.80677 18.0849 4.07597 22.4468C3.42664 26.3642 7.03997 29.3335 11.0773 29.3335H20.9226C24.9613 29.3335 28.576 26.3642 27.9226 22.4468" stroke="#121212" stroke-width="1.25" stroke-linecap="round" stroke-linejoin="round"/>
<path d="M9.67592 5.92408C9.39992 5.52408 9.00125 4.98008 9.82525 4.85742C10.6719 4.72941 11.5506 5.30808 12.4119 5.29742C13.1893 5.28542 13.5853 4.94008 14.0119 4.44675C14.4599 3.92808 15.1533 2.66675 15.9999 2.66675C16.8466 2.66675 17.5399 3.92808 17.9879 4.44675C18.4146 4.94008 18.8106 5.28675 19.5879 5.29608C20.4493 5.30942 21.3279 4.72942 22.1746 4.85608C22.9986 4.98008 22.5999 5.52275 22.3239 5.92275L21.0813 7.73475C20.5479 8.50808 20.2826 8.89475 19.7253 9.11475C19.1679 9.33475 18.4493 9.33342 17.0106 9.33342H14.9893C13.5493 9.33342 12.8306 9.33342 12.2746 9.11475C11.7186 8.89608 11.4519 8.50675 10.9186 7.73342L9.67592 5.92408Z" stroke="#121212" stroke-width="1.25" stroke-linecap="round" stroke-linejoin="round"/>
</svg>
