<svg width="71" height="57" viewBox="0 0 71 57" fill="none" xmlns="http://www.w3.org/2000/svg">
<path d="M27.6833 11.0219V0.989494H43.0713V11.0219H27.6833Z" fill="#79A2FF"/>
<path d="M27.6079 11.1727L15.2371 23.7697V11.0973L27.6079 0.914062V11.1727Z" fill="#2C2C2C"/>
<path d="M0.36135 23.7697C0.0886667 21.9233 -0.293089 16.8037 0.36135 11.0973H15.0863V23.7697H0.36135Z" fill="#79A2FF"/>
<path d="M43.1467 11.0219L55.6683 23.6943L55.3666 11.0219L43.1467 0.989494V11.0219Z" fill="#2C2C2C"/>
<path d="M70.6791 23.6943V10.871L55.442 11.0219L55.7437 23.6943H70.6791Z" fill="#79A2FF"/>
<path d="M55.442 23.7697H15.2371L27.985 11.1727H42.6941L55.442 23.7697Z" fill="#2C2C2C"/>
<path d="M34.2458 23.6189V11.2482H35.0001V23.6189H34.2458Z" fill="#121212"/>
<path d="M0.452588 36.2159V23.6189H15.1617V36.2159H0.452588Z" fill="#2B63E1"/>
<path d="M55.5929 36.2913V23.8452H70.83L70.5283 36.2913H55.5929Z" fill="#2B63E1"/>
<path d="M27.5324 36.3668C22.7897 29.2334 20.1311 29.7977 15.388 36.3668V23.8452H55.6683V36.3668C50.9255 29.2334 48.2669 29.7977 43.5239 36.3668H27.5324Z" fill="#2B63E1"/>
<path d="M25.9484 37.3474C25.9484 39.847 23.9221 41.8733 21.4225 41.8733C18.9229 41.8733 16.8966 39.847 16.8966 37.3474C16.8966 34.8478 18.9229 32.8215 21.4225 32.8215C23.9221 32.8215 25.9484 34.8478 25.9484 37.3474Z" fill="#121212"/>
<path d="M54.1597 37.3474C54.1597 39.847 52.1334 41.8733 49.6338 41.8733C47.1342 41.8733 45.1079 39.847 45.1079 37.3474C45.1079 34.8478 47.1342 32.8215 49.6338 32.8215C52.1334 32.8215 54.1597 34.8478 54.1597 37.3474Z" fill="#121212"/>
<g filter="url(#filter0_d_386_435)">
<path d="M25.3395 23.0444C25.631 22.8713 25.9863 22.8713 26.2687 23.0444L36.2164 29.0932C36.4533 29.2389 36.599 29.5031 36.599 29.7764L25.8041 37.0341L15 29.8666V29.7755C15 29.5022 15.1458 29.238 15.3826 29.1014L25.3395 23.0444Z" fill="#F3C07B"/>
<path d="M25.8004 35.8917L36.149 29.6061C36.1944 29.579 36.2461 29.5645 36.299 29.5639C36.3518 29.5634 36.4038 29.5768 36.4498 29.6029C36.4957 29.6291 36.5339 29.6669 36.5604 29.7126C36.587 29.7582 36.6009 29.8101 36.6009 29.863V41.1043C36.6013 41.375 36.5319 41.6413 36.3995 41.8775C36.267 42.1136 36.076 42.3117 35.8448 42.4525L26.1521 48.3374C26.1272 48.3505 26.1005 48.3597 26.0728 48.3647C26.0482 48.3716 26.0228 48.3749 25.9972 48.3747C25.7883 48.4327 25.5649 48.4055 25.3759 48.2991H25.3814L23.1987 38.4005L25.8004 35.8917Z" fill="#FFCE7C"/>
<path d="M25.8041 48.0768V35.8972L15.4646 29.6115C15.4189 29.5822 15.3662 29.5657 15.312 29.5638C15.2577 29.5619 15.204 29.5747 15.1564 29.6008C15.1088 29.627 15.0692 29.6654 15.0417 29.7122C15.0141 29.759 14.9997 29.8123 15 29.8666L15 41.1079C15 41.6636 15.2915 42.1738 15.7561 42.4562L25.385 48.3046C25.4261 48.3305 25.4734 48.345 25.522 48.3466C25.5705 48.3481 25.6186 48.3367 25.6613 48.3135C25.704 48.2903 25.7397 48.2562 25.7648 48.2146C25.7899 48.173 25.8035 48.1254 25.8041 48.0768Z" fill="#E19747"/>
<path d="M24.5652 45.4897V43.7042C24.5652 43.4947 24.4558 43.3034 24.2828 43.1941L21.7321 41.6545C21.559 41.5543 21.3403 41.6727 21.3403 41.8732V43.6587C21.3403 43.8682 21.4497 44.0595 21.6227 44.1688L24.1734 45.7083C24.3465 45.8085 24.5652 45.6901 24.5652 45.4897Z" fill="#D3D3D3"/>
<path d="M22.0691 36.1714V32.0174L19.0811 31.817V34.6956C19.0811 34.7867 19.1267 34.8778 19.2087 34.9325L21.6501 36.4174C21.8323 36.5176 22.0691 36.39 22.0691 36.1714Z" fill="#F9F9F9"/>
<path d="M29.8852 25.2489L19.0811 31.817L22.0691 33.6389L32.8732 27.08L29.8852 25.2489Z" fill="#A56953"/>
</g>
<defs>
<filter id="filter0_d_386_435" x="11" y="22.9146" width="29.6011" height="33.49" filterUnits="userSpaceOnUse" color-interpolation-filters="sRGB">
<feFlood flood-opacity="0" result="BackgroundImageFix"/>
<feColorMatrix in="SourceAlpha" type="matrix" values="0 0 0 0 0 0 0 0 0 0 0 0 0 0 0 0 0 0 127 0" result="hardAlpha"/>
<feOffset dy="4"/>
<feGaussianBlur stdDeviation="2"/>
<feComposite in2="hardAlpha" operator="out"/>
<feColorMatrix type="matrix" values="0 0 0 0 0 0 0 0 0 0 0 0 0 0 0 0 0 0 0.25 0"/>
<feBlend mode="normal" in2="BackgroundImageFix" result="effect1_dropShadow_386_435"/>
<feBlend mode="normal" in="SourceGraphic" in2="effect1_dropShadow_386_435" result="shape"/>
</filter>
</defs>
</svg>
