<svg width="28" height="28" viewBox="0 0 28 28" fill="none" xmlns="http://www.w3.org/2000/svg">
<path d="M14 20.6667V20.68M2 14C2 15.5759 2.31039 17.1363 2.91345 18.5922C3.5165 20.0481 4.40042 21.371 5.51472 22.4853C6.62902 23.5996 7.95189 24.4835 9.4078 25.0866C10.8637 25.6896 12.4241 26 14 26C15.5759 26 17.1363 25.6896 18.5922 25.0866C20.0481 24.4835 21.371 23.5996 22.4853 22.4853C23.5996 21.371 24.4835 20.0481 25.0866 18.5922C25.6896 17.1363 26 15.5759 26 14C26 12.4241 25.6896 10.8637 25.0866 9.4078C24.4835 7.95189 23.5996 6.62902 22.4853 5.51472C21.371 4.40042 20.0481 3.5165 18.5922 2.91345C17.1363 2.31039 15.5759 2 14 2C12.4241 2 10.8637 2.31039 9.4078 2.91345C7.95189 3.5165 6.62902 4.40042 5.51472 5.51472C4.40042 6.62902 3.5165 7.95189 2.91345 9.4078C2.31039 10.8637 2 12.4241 2 14Z" stroke="#14AE5C" stroke-width="2.66667" stroke-linecap="round" stroke-linejoin="round"/>
<path d="M13.9999 16C13.9754 15.5672 14.0921 15.1381 14.3326 14.7773C14.5731 14.4166 14.9243 14.1438 15.3333 14C15.8344 13.8083 16.2843 13.503 16.6473 13.1079C17.0104 12.7129 17.2769 12.239 17.4257 11.7234C17.5745 11.2079 17.6016 10.6649 17.5049 10.1372C17.4082 9.60938 17.1903 9.11126 16.8683 8.68202C16.5464 8.25277 16.1292 7.90411 15.6496 7.66349C15.1701 7.42287 14.6412 7.29685 14.1046 7.29536C13.5681 7.29387 13.0385 7.41695 12.5576 7.65491C12.0767 7.89287 11.6576 8.23921 11.3333 8.66666" stroke="#14AE5C" stroke-width="2.66667" stroke-linecap="round" stroke-linejoin="round"/>
</svg>
