<svg width="24" height="28" viewBox="0 0 24 28" fill="none" xmlns="http://www.w3.org/2000/svg">
<path d="M11.35 0.143C11.67 -0.0470003 12.06 -0.0470003 12.37 0.143L23.29 6.783C23.55 6.943 23.71 7.233 23.71 7.533L11.86 15.5L0 7.632V7.532C0 7.232 0.16 6.942 0.42 6.792L11.35 0.143Z" fill="#79A2FF"/>
<path d="M11.856 14.246L23.216 7.346C23.2658 7.3163 23.3226 7.30033 23.3806 7.29973C23.4386 7.29912 23.4957 7.31391 23.5461 7.34257C23.5965 7.37124 23.6384 7.41275 23.6676 7.46289C23.6967 7.51303 23.7121 7.57001 23.712 7.628V19.968C23.7124 20.2652 23.6363 20.5575 23.4909 20.8167C23.3455 21.076 23.1358 21.2934 22.882 21.448L12.242 27.908C12.2147 27.9224 12.1854 27.9325 12.155 27.938C12.128 27.9455 12.1 27.9492 12.072 27.949C11.8426 28.0126 11.5974 27.9828 11.39 27.866H11.396L9 17L11.856 14.246Z" fill="#A2BFFF"/>
<path d="M11.86 27.622V14.252L0.510004 7.352C0.45989 7.31978 0.402008 7.30168 0.342466 7.29962C0.282924 7.29756 0.223928 7.3116 0.171703 7.34027C0.119478 7.36895 0.0759609 7.41118 0.045741 7.46253C0.0155212 7.51387 -0.000280317 7.57242 3.76393e-06 7.632V19.972C3.76393e-06 20.582 0.320004 21.142 0.830004 21.452L11.4 27.872C11.4451 27.9005 11.497 27.9164 11.5503 27.9181C11.6036 27.9198 11.6564 27.9073 11.7033 27.8818C11.7501 27.8564 11.7894 27.8189 11.8169 27.7732C11.8445 27.7275 11.8593 27.6753 11.86 27.622Z" fill="#6695FF"/>
<path d="M10.5 24.782V22.822C10.5 22.592 10.38 22.382 10.19 22.262L7.38996 20.572C7.19996 20.462 6.95996 20.592 6.95996 20.812V22.772C6.95996 23.002 7.07996 23.212 7.26996 23.332L10.07 25.022C10.26 25.132 10.5 25.002 10.5 24.782Z" fill="#D3D3D3"/>
<path d="M7.75998 14.553V9.993L4.47998 9.773V12.933C4.47998 13.033 4.52998 13.133 4.61998 13.193L7.29998 14.823C7.49998 14.933 7.75998 14.793 7.75998 14.553Z" fill="#2B63E1"/>
<path d="M16.34 2.563L4.47998 9.773L7.75998 11.773L19.62 4.573L16.34 2.563Z" fill="#2B63E1"/>
</svg>
